<?xml version="1.0" standalone="no"?>
<!DOCTYPE svg PUBLIC "-//W3C//DTD SVG 20010904//EN"
 "http://www.w3.org/TR/2001/REC-SVG-20010904/DTD/svg10.dtd">
<svg version="1.0" xmlns="http://www.w3.org/2000/svg"
 width="160.000000pt" height="159.000000pt" viewBox="0 0 160.000000 159.000000"
 preserveAspectRatio="xMidYMid meet">
<metadata>
Created by potrace 1.16, written by Peter Selinger 2001-2019
</metadata>
<g transform="translate(0.000000,159.000000) scale(0.100000,-0.100000)"
fill="#000000" stroke="none">
<path d="M80 1375 l0 -135 135 0 135 0 0 135 0 135 -135 0 -135 0 0 -135z
m227 12 c1 -53 -3 -82 -12 -91 -9 -8 -39 -12 -92 -12 l-78 1 -3 93 -3 93 93
-3 93 -3 2 -78z"/>
<path d="M390 1455 l0 -55 55 0 c48 0 55 -2 55 -20 0 -18 -7 -20 -55 -20 -48
0 -55 -2 -55 -20 0 -17 7 -20 40 -20 l40 0 0 -40 c0 -36 -2 -40 -25 -40 -18 0
-25 5 -25 20 0 11 -7 20 -15 20 -8 0 -15 -9 -15 -20 0 -11 7 -20 15 -20 8 0
15 -9 15 -20 0 -19 -7 -20 -115 -20 -96 0 -115 -3 -115 -15 0 -8 -9 -15 -20
-15 -15 0 -20 -7 -20 -25 0 -18 5 -25 20 -25 11 0 20 -7 20 -15 0 -8 9 -15 20
-15 11 0 20 7 20 15 0 8 -9 15 -20 15 -15 0 -20 7 -20 25 0 25 1 25 80 25 79
0 80 0 80 -25 0 -22 -4 -25 -40 -25 -39 0 -40 -1 -40 -35 0 -28 -4 -35 -20
-35 -18 0 -20 -7 -20 -56 0 -47 3 -57 20 -61 27 -7 27 -43 0 -43 -16 0 -20 -7
-20 -35 0 -28 -4 -35 -20 -35 -18 0 -20 7 -20 55 l0 55 -35 0 c-28 0 -35 4
-35 20 0 11 7 20 15 20 8 0 15 9 15 20 0 11 -6 20 -14 20 -10 0 -16 13 -18 37
-2 27 -8 39 -21 41 -15 3 -17 -7 -17 -97 l0 -101 35 0 c33 0 35 -2 35 -35 0
-28 4 -35 20 -35 15 0 20 -7 20 -25 0 -18 5 -25 20 -25 15 0 20 7 20 25 0 22
4 25 35 25 22 0 38 6 41 15 4 8 15 15 25 15 10 0 19 -7 19 -15 0 -8 -9 -15
-20 -15 -19 0 -24 -10 -21 -37 1 -9 -12 -13 -39 -13 -29 0 -40 -4 -40 -15 0
-8 -9 -15 -20 -15 -18 0 -20 -7 -20 -60 0 -53 -2 -60 -20 -60 -13 0 -20 -7
-20 -20 0 -16 -7 -20 -35 -20 l-35 0 0 -94 c0 -71 3 -95 14 -99 20 -8 26 2 26
45 0 27 4 38 15 38 11 0 15 -11 15 -40 0 -39 3 -42 35 -42 36 0 45 3 45 17 0
8 -9 15 -20 15 -17 0 -20 7 -20 40 0 39 -1 40 -35 40 -28 0 -35 4 -35 20 0 18
7 20 55 20 48 0 55 -2 55 -20 0 -13 7 -20 20 -20 11 0 20 -7 20 -15 0 -11 11
-15 40 -15 36 0 40 -2 40 -25 0 -22 -4 -25 -40 -25 -29 0 -40 -4 -40 -15 0
-15 5 -17 35 -17 36 0 45 3 45 17 0 8 9 15 20 15 19 0 20 -7 20 -115 l0 -115
40 0 c33 0 40 3 40 20 0 11 7 20 15 20 8 0 15 -9 15 -20 0 -13 7 -20 20 -20
13 0 20 -7 20 -20 0 -17 7 -20 41 -20 33 0 40 -3 37 -17 -2 -14 -14 -17 -58
-18 -49 0 -55 -2 -58 -22 -3 -22 -1 -23 77 -23 80 0 81 0 81 25 0 14 3 24 8
24 20 -3 32 2 32 16 0 8 -9 15 -20 15 -17 0 -20 7 -20 40 l0 40 40 0 40 0 0
-55 c0 -42 3 -55 15 -55 12 0 15 13 15 55 0 52 1 55 25 55 18 0 25 5 25 20 0
15 -7 20 -25 20 -18 0 -25 -5 -25 -20 0 -11 -7 -20 -15 -20 -8 0 -15 9 -15 20
0 17 -7 20 -40 20 -33 0 -40 -3 -40 -20 0 -17 -7 -20 -40 -20 l-40 0 0 60 0
60 40 0 c36 0 40 -2 40 -25 0 -25 1 -25 80 -25 64 0 80 -3 80 -15 0 -8 7 -15
15 -15 11 0 15 11 15 40 0 29 -4 40 -15 40 -19 0 -19 29 0 36 21 8 21 84 0 84
-8 0 -15 7 -15 15 0 8 7 15 15 15 8 0 15 9 15 20 0 30 79 30 87 0 4 -15 14
-20 39 -20 33 0 34 1 34 40 0 33 3 40 20 40 13 0 20 7 20 20 0 13 -7 20 -20
20 -19 0 -27 19 -14 33 10 9 34 -4 34 -19 0 -8 9 -14 20 -14 13 0 20 7 20 19
0 12 -7 18 -17 17 -14 -1 -19 8 -21 42 -3 37 -1 42 17 42 18 0 21 -6 21 -40 0
-27 5 -43 15 -46 8 -4 15 -12 15 -20 0 -8 -7 -14 -15 -14 -12 0 -15 -13 -15
-60 0 -53 -2 -60 -20 -60 -11 0 -20 -7 -20 -15 0 -11 -11 -15 -40 -15 -36 0
-40 -2 -40 -25 0 -22 -4 -25 -40 -25 -30 0 -40 -4 -40 -16 0 -9 -9 -18 -20
-21 -11 -3 -20 -12 -20 -19 0 -10 16 -14 60 -14 l60 0 0 -40 c0 -33 3 -40 20
-40 13 0 20 -7 20 -20 0 -13 7 -20 20 -20 13 0 20 -7 20 -20 0 -17 -7 -20 -40
-20 -33 0 -40 4 -40 19 0 10 -8 21 -19 24 -14 3 -18 12 -16 36 2 27 -1 31 -21
31 -15 0 -24 -6 -24 -15 0 -8 -9 -15 -20 -15 -17 0 -20 -7 -20 -40 0 -40 0
-40 39 -40 31 0 41 -4 46 -20 5 -15 15 -20 41 -20 22 0 34 -5 34 -14 0 -23 31
-29 37 -6 7 26 39 26 46 -1 6 -23 27 -17 27 7 0 8 10 14 25 14 23 0 25 4 25
40 0 32 4 40 19 40 15 0 18 -7 17 -40 -2 -33 1 -40 16 -40 11 0 18 7 18 20 0
15 7 20 25 20 18 0 25 5 25 20 0 16 7 20 35 20 28 0 35 -4 35 -20 0 -13 -7
-20 -20 -20 -17 0 -20 -7 -20 -41 0 -32 -3 -40 -15 -35 -11 4 -15 -1 -15 -19
0 -16 6 -25 15 -25 8 0 15 9 15 19 0 36 73 39 78 4 5 -31 39 -31 44 0 4 29 22
29 26 -1 3 -16 10 -22 28 -22 l24 0 0 175 0 175 -40 0 c-36 0 -40 3 -40 25 0
23 4 25 40 25 29 0 40 4 40 15 0 11 -11 15 -40 15 -29 0 -40 -4 -40 -15 0 -11
-11 -15 -40 -15 -36 0 -40 -2 -40 -25 0 -24 -3 -25 -60 -25 -57 0 -60 1 -60
25 0 23 4 25 40 25 29 0 40 4 40 15 0 11 11 15 40 15 33 0 40 3 40 20 0 18 -7
20 -55 20 -48 0 -55 2 -55 20 0 18 7 20 75 20 68 0 75 -2 75 -20 0 -26 30 -26
37 0 3 11 14 20 24 20 15 0 19 7 19 39 0 34 -3 38 -19 34 -14 -3 -21 -15 -23
-36 -4 -37 -38 -53 -38 -18 0 14 -6 21 -20 21 -13 0 -20 7 -20 20 0 13 7 20
20 20 17 0 20 7 20 40 0 33 -3 40 -20 40 -11 0 -20 7 -20 15 0 8 9 15 20 15
15 0 20 7 20 26 0 33 -33 30 -38 -4 -3 -21 -8 -22 -83 -22 l-79 0 0 40 c0 29
-4 40 -15 40 -16 0 -17 2 -19 50 -1 22 3 30 17 30 13 0 17 -9 17 -40 0 -36 3
-40 25 -40 16 0 25 -6 25 -15 0 -8 7 -15 15 -15 8 0 15 7 15 15 0 8 9 15 20
15 13 0 20 7 20 20 0 13 7 20 19 20 10 0 21 -9 24 -20 3 -11 12 -20 21 -20 12
0 16 10 16 41 0 33 3 40 18 37 9 -2 16 -11 16 -21 -1 -12 6 -17 22 -17 21 0
24 4 24 40 l0 40 -60 0 -60 0 0 40 c0 39 1 40 34 40 25 0 35 -5 39 -20 3 -12
14 -20 26 -20 19 0 21 6 21 55 0 49 -2 55 -20 55 -11 0 -23 -7 -26 -15 -5 -11
-24 -15 -80 -15 -67 0 -74 -2 -74 -20 0 -13 7 -20 20 -20 13 0 20 -7 20 -20 0
-13 -7 -20 -20 -20 -13 0 -20 7 -20 20 0 11 -7 20 -15 20 -10 0 -15 11 -15 35
0 31 -3 35 -25 35 -16 0 -25 -6 -25 -15 0 -10 -11 -15 -35 -15 -34 0 -35 1
-35 41 0 33 3 40 18 37 9 -2 18 -9 18 -16 1 -6 2 -16 3 -22 0 -5 8 -10 16 -10
11 0 15 11 15 40 0 29 -4 40 -15 40 -8 0 -16 8 -16 18 -1 9 -3 31 -4 47 -1 17
-3 36 -4 43 0 6 -8 12 -16 12 -12 0 -15 -13 -15 -61 0 -57 -1 -60 -22 -57 -21
3 -23 9 -26 81 -2 59 -6 77 -17 77 -11 0 -15 12 -15 40 0 33 -3 40 -20 40 -11
0 -20 7 -20 15 0 8 -9 15 -20 15 -14 0 -20 7 -20 21 0 17 -5 20 -37 17 -41 -3
-57 -26 -24 -35 16 -4 21 -13 21 -39 0 -38 -28 -49 -37 -14 -3 11 -14 20 -24
20 -15 0 -19 -7 -19 -40 l0 -39 -57 -3 c-46 -2 -59 -7 -61 -20 -3 -15 4 -18
37 -18 l41 0 0 -60 c0 -47 -3 -60 -15 -60 -8 0 -15 -7 -15 -15 0 -9 -10 -15
-26 -15 -21 0 -25 -4 -22 -22 2 -15 11 -24 26 -26 18 -3 22 -10 22 -38 0 -30
-3 -34 -25 -34 -18 0 -25 5 -25 20 0 11 -7 20 -15 20 -11 0 -15 11 -15 40 0
33 -3 40 -20 40 -16 0 -20 7 -20 35 0 28 4 35 20 35 19 0 20 7 20 100 0 82 3
100 15 100 8 0 15 -9 15 -20 0 -17 7 -20 40 -20 39 0 40 1 40 35 0 28 4 35 20
35 13 0 20 7 20 20 0 16 -7 20 -34 20 -25 0 -35 -5 -39 -20 -3 -11 -13 -20
-22 -20 -9 0 -19 9 -22 20 -3 11 -11 20 -18 20 -7 0 -15 -9 -18 -20 -4 -15
-14 -20 -41 -20 -25 0 -36 -4 -36 -15 0 -8 9 -15 20 -15 19 0 20 -7 20 -100 0
-93 -1 -100 -20 -100 -17 0 -20 7 -20 40 0 33 -3 40 -20 40 -18 0 -20 7 -20
60 0 53 -2 60 -20 60 -11 0 -20 7 -20 15 0 11 -11 15 -40 15 -29 0 -40 -4 -40
-15 0 -8 -7 -15 -15 -15 -8 0 -15 7 -15 15 0 9 -9 15 -21 15 -12 0 -23 8 -26
20 -3 11 -12 20 -19 20 -10 0 -14 -15 -14 -55z m150 -115 c0 -17 7 -20 40 -20
l40 0 0 -40 c0 -33 3 -40 20 -40 16 0 20 -7 20 -35 0 -28 4 -35 20 -35 15 0
20 -7 20 -25 0 -18 -5 -25 -20 -25 -11 0 -20 -7 -20 -15 0 -8 9 -15 20 -15 13
0 20 -7 20 -20 0 -16 7 -20 35 -20 28 0 35 -4 35 -20 0 -15 7 -20 25 -20 18 0
25 5 25 20 0 16 7 20 35 20 29 0 35 4 35 21 0 15 5 20 23 17 18 -2 22 -9 22
-40 0 -37 0 -38 -38 -38 -30 0 -40 -4 -44 -20 -4 -16 -14 -20 -45 -20 -32 0
-39 -3 -36 -17 2 -10 13 -19 26 -21 14 -2 22 -10 22 -23 0 -15 7 -19 35 -19
28 0 35 -4 35 -19 0 -13 8 -21 23 -23 12 -2 22 -7 22 -13 0 -5 -10 -11 -22
-13 -17 -3 -23 -10 -23 -28 0 -23 2 -24 80 -24 79 0 80 0 80 25 0 23 -4 25
-40 25 -39 0 -40 1 -40 35 0 28 4 35 20 35 13 0 20 7 20 20 0 18 -7 20 -60 20
-53 0 -60 2 -60 20 0 18 7 20 60 20 53 0 60 2 60 20 0 13 -7 20 -20 20 -17 0
-20 7 -20 40 0 33 3 40 20 40 11 0 20 7 20 15 0 8 -9 15 -20 15 -11 0 -20 -7
-20 -15 0 -8 -9 -15 -20 -15 -11 0 -19 6 -18 13 2 8 -15 13 -54 15 -54 3 -58
5 -58 27 0 16 6 25 15 25 8 0 15 7 15 15 0 8 9 15 20 15 11 0 20 -7 20 -15 0
-11 11 -15 40 -15 29 0 40 4 40 15 0 8 9 15 20 15 13 0 20 7 20 20 0 13 -7 20
-20 20 -13 0 -20 7 -20 19 0 10 9 21 20 24 11 3 20 12 20 21 0 9 -8 16 -20 16
-13 0 -20 7 -20 20 0 17 7 20 40 20 l40 0 0 -40 c0 -22 3 -39 8 -39 22 4 32
-3 32 -21 0 -13 -7 -20 -20 -20 -13 0 -20 -7 -20 -20 0 -13 7 -20 20 -20 17 0
20 -7 20 -40 0 -33 -3 -40 -20 -40 -11 0 -20 -7 -20 -15 0 -8 9 -15 20 -15 13
0 20 -7 20 -20 0 -11 7 -20 15 -20 8 0 15 -9 15 -20 0 -11 -7 -20 -15 -20 -8
0 -15 -9 -15 -20 0 -11 7 -20 15 -20 12 0 15 -19 15 -115 0 -96 -3 -115 -15
-115 -8 0 -15 7 -15 15 0 8 -9 15 -20 15 -11 0 -20 -7 -20 -15 0 -8 -9 -15
-20 -15 -13 0 -20 -7 -20 -20 0 -13 -7 -20 -20 -20 -18 0 -20 -7 -20 -60 l0
-60 -40 0 c-33 0 -40 3 -40 20 0 13 7 20 19 20 26 0 34 15 16 30 -16 14 -35 5
-35 -16 0 -11 -14 -14 -60 -14 -53 0 -60 -2 -60 -20 0 -17 7 -20 40 -20 33 0
40 -3 40 -20 0 -17 -7 -20 -40 -20 -33 0 -40 3 -40 20 0 11 -7 20 -15 20 -8 0
-15 -9 -15 -20 0 -11 7 -20 15 -20 10 0 15 -11 15 -35 0 -31 3 -35 26 -35 23
0 25 -3 22 -42 -3 -42 -4 -43 -38 -43 -33 0 -35 2 -38 39 -2 28 -9 40 -23 43
-10 3 -19 12 -19 19 0 8 -8 14 -19 14 -10 0 -21 9 -24 20 -7 26 -37 26 -37 0
0 -12 -7 -20 -16 -20 -9 0 -18 9 -21 20 -4 16 -14 20 -44 20 -32 0 -39 3 -39
20 0 11 -7 20 -15 20 -12 0 -15 13 -15 60 0 47 3 60 15 60 8 0 15 9 15 20 0
13 7 20 20 20 11 0 20 7 20 15 0 11 11 15 40 15 39 0 40 -1 40 -35 0 -28 4
-35 20 -35 13 0 20 7 20 20 0 17 7 20 40 20 33 0 40 -3 40 -20 0 -17 -7 -20
-40 -20 -33 0 -40 -3 -40 -19 0 -11 -9 -23 -20 -26 -11 -3 -20 -13 -20 -21 0
-8 -9 -14 -20 -14 -17 0 -20 -7 -20 -40 0 -33 3 -40 20 -40 17 0 20 7 20 40
l0 40 40 0 c33 0 40 -3 40 -20 0 -13 7 -20 19 -20 16 0 20 8 23 38 l3 37 53
-1 c48 -1 52 0 52 22 0 21 5 24 40 24 33 0 40 3 40 20 0 13 -7 20 -20 20 -11
0 -20 6 -20 14 0 7 -9 16 -20 19 -12 3 -20 14 -20 26 0 12 -6 21 -15 21 -12 0
-15 -13 -15 -60 0 -57 -1 -60 -25 -60 -18 0 -25 5 -25 20 0 11 -7 20 -15 20
-8 0 -15 7 -15 15 0 8 7 15 15 15 11 0 15 11 15 40 0 36 3 40 25 40 18 0 25 5
25 20 0 17 -7 20 -40 20 -39 0 -40 -1 -40 -35 0 -28 -4 -35 -20 -35 -15 0 -20
-7 -20 -25 0 -18 -5 -25 -20 -25 -17 0 -20 7 -20 40 0 33 3 40 20 40 13 0 20
7 20 20 0 13 7 20 20 20 18 0 20 7 20 56 0 47 -3 57 -20 61 -11 3 -20 14 -20
24 0 12 -7 19 -20 19 -13 0 -20 -7 -20 -20 0 -13 7 -20 20 -20 13 0 20 -7 20
-20 0 -17 -7 -20 -40 -20 l-40 0 0 -61 c0 -52 -2 -60 -17 -57 -13 2 -19 14
-21 41 -3 36 -4 37 -43 37 -32 0 -39 -3 -39 -20 0 -18 -7 -20 -55 -20 -48 0
-55 -2 -55 -20 0 -13 -7 -20 -20 -20 -13 0 -20 7 -20 20 0 15 -7 20 -25 20
-18 0 -23 4 -18 16 4 10 -1 17 -16 21 -18 5 -21 13 -21 63 0 50 3 58 20 63 11
3 19 11 18 18 -2 8 7 15 20 17 16 3 22 -2 22 -17 0 -13 -8 -21 -22 -23 -13 -2
-23 -10 -23 -18 0 -11 14 -16 58 -18 52 -3 57 -1 57 18 0 11 -7 20 -15 20 -10
0 -15 11 -15 35 l0 35 75 0 c60 0 75 -3 75 -15 0 -8 9 -15 20 -15 11 0 20 7
20 15 0 11 11 15 40 15 36 0 40 3 40 25 0 18 -5 25 -20 25 -16 0 -20 7 -20 35
0 28 -4 35 -20 35 -13 0 -20 -7 -20 -20 0 -13 -7 -20 -20 -20 -11 0 -20 -7
-20 -15 0 -10 -11 -15 -35 -15 -24 0 -35 5 -35 15 0 8 6 15 14 15 10 0 16 14
18 43 2 29 8 42 18 42 8 0 16 8 18 18 2 12 -3 17 -17 17 -14 0 -21 6 -21 20 0
13 7 20 20 20 13 0 20 -7 20 -20z m-40 -545 c0 -42 -3 -55 -15 -55 -8 0 -15
-9 -15 -20 0 -29 -75 -29 -83 -1 -3 14 -15 21 -41 23 -41 3 -53 21 -18 26 16
3 22 10 22 28 0 17 5 24 20 24 11 0 20 7 20 15 0 12 13 15 55 15 l55 0 0 -55z
m-230 -154 c0 -51 3 -59 20 -64 11 -3 19 -11 18 -18 -2 -8 7 -15 20 -17 17 -3
22 1 22 17 0 14 -6 21 -18 21 -24 0 -32 8 -25 26 3 9 20 14 43 14 30 0 39 4
43 21 3 12 10 18 16 14 16 -9 13 -35 -4 -35 -12 0 -15 -13 -15 -60 l0 -60 40
0 c29 0 40 -4 40 -15 0 -8 7 -15 15 -15 11 0 15 -11 15 -39 0 -31 4 -41 20
-46 18 -6 20 -15 20 -81 0 -67 2 -74 20 -74 13 0 20 -7 20 -20 0 -13 -7 -20
-20 -20 -13 0 -20 7 -20 20 0 13 -7 20 -20 20 -16 0 -20 7 -20 35 0 24 -5 35
-15 35 -11 0 -15 11 -15 40 0 37 -7 46 -33 41 -5 -1 -11 8 -14 19 -3 11 -12
20 -19 20 -10 0 -14 13 -14 40 l0 40 -60 0 -60 0 0 40 0 40 -40 0 c-33 0 -40
3 -40 20 0 13 7 20 20 20 17 0 20 7 20 40 0 33 3 40 20 40 18 0 20 -7 20 -59z
m1050 34 c0 -16 -6 -25 -15 -25 -10 0 -15 -11 -15 -35 0 -31 -3 -35 -25 -35
-24 0 -25 -3 -25 -55 0 -42 -3 -55 -15 -55 -14 0 -20 -12 -16 -33 1 -5 -8 -11
-19 -14 -17 -5 -20 -13 -20 -64 0 -56 -1 -59 -25 -59 -16 0 -25 -6 -25 -15 0
-8 -7 -15 -15 -15 -13 0 -15 11 -13 58 2 39 7 56 16 55 6 -2 12 6 12 17 0 16
-7 20 -35 20 -31 0 -35 3 -35 25 0 24 3 25 60 25 44 0 60 4 60 14 0 7 9 16 19
19 15 4 18 12 16 41 -3 30 -1 36 16 36 17 0 19 7 19 60 l0 60 40 0 c36 0 40
-2 40 -25z m120 -268 c0 -7 9 -20 20 -30 17 -14 20 -29 20 -106 0 -49 -3 -96
-6 -105 -9 -23 -34 -20 -34 4 0 13 -7 20 -20 20 -13 0 -20 -7 -20 -20 0 -13
-7 -20 -20 -20 -13 0 -20 7 -20 20 0 13 7 20 20 20 13 0 20 7 20 20 0 13 -7
20 -20 20 -19 0 -20 7 -20 95 l0 95 40 0 c26 0 40 -5 40 -13z"/>
<path d="M503 1070 c-3 -11 -12 -20 -19 -20 -10 0 -14 -13 -14 -40 0 -36 -2
-40 -26 -40 -19 0 -25 -5 -22 -17 5 -26 38 -29 45 -4 5 18 13 21 59 21 l54 0
0 40 0 40 40 0 c33 0 40 3 40 20 0 17 -7 20 -40 20 -33 0 -40 -3 -40 -20 0
-13 -7 -20 -20 -20 -13 0 -20 7 -20 20 0 12 -7 20 -16 20 -9 0 -18 -9 -21 -20z"/>
<path d="M1240 1375 l0 -135 140 0 140 0 0 135 0 135 -140 0 -140 0 0 -135z
m236 71 c6 -26 0 -139 -9 -153 -3 -4 -43 -8 -89 -8 l-83 0 -3 93 -3 92 90 0
c87 0 91 -1 97 -24z"/>
<path d="M80 210 l0 -140 135 0 135 0 0 140 0 140 -135 0 -135 0 0 -140z m223
77 c10 -26 5 -157 -6 -164 -6 -4 -49 -8 -94 -9 l-83 -2 0 94 0 94 89 0 c63 0
90 -4 94 -13z"/>
</g>
</svg>
